<svg xmlns="http://www.w3.org/2000/svg" viewBox="0 0 904.84 95.97"><defs><style>.cls-1{fill:none;stroke:#b3b3b3;stroke-width:5px;}.cls-2{fill:#b3b3b3;}</style></defs><title>アセット 1</title><g id="レイヤー_2" data-name="レイヤー 2"><g id="レイヤー_1-2" data-name="レイヤー 1"><path class="cls-1" d="M54.36,89.93h-6.3V41A158.91,158.91,0,0,1,6.26,63.37l-2.75-5.8C15.31,54,48.65,40.16,74.13,6.62L80,10.16a173.82,173.82,0,0,1-25.67,26Z"/><path class="cls-1" d="M164.91,14.78v69h-71V14.78Zm-6,5.71h-59V78h59Z"/><path class="cls-1" d="M209.76,12.52C207.89,29,202.68,59,184.09,86l-5.61-3.24c14-20.46,21.15-40.72,24.89-71.21Zm45.54,71.8a209,209,0,0,0-24.2-70.23l5.51-2.85c8.16,14.66,20.16,39.44,25.28,71.61Z"/><path class="cls-1" d="M273.39,84.22c17-10.72,27.35-25.08,31-53.11h-28v-5.7h28.72c.69-9.25.69-13.18.69-18.79l6.4.2c-.4,9.14-.59,12.88-1.18,18.59h39V42.13c0,2.65,0,29.7-3.64,38.55-3.14,7.67-11.9,7.67-15.73,7.67a74.15,74.15,0,0,1-15.74-1.47v-6.1a88,88,0,0,0,16.43,1.77c7.67,0,9-3.64,9.83-6,2-6.19,2.66-26.55,2.66-34.52V31.11H310.38c-4.43,34-18.2,48.88-33.25,57.74Z"/><path class="cls-1" d="M400.2,79.86c8.83-1.08,28.52-3.49,28.52-26.58,0-5.28-1.31-25.82-26.2-26-1.24,13.57-2.71,29.84-10.46,42.17-4.26,6.74-8.61,9-12.17,9-7.52,0-13.26-9.22-13.26-21.16,0-19.85,13.88-34.26,35.58-34.26,26.05,0,31.4,18.83,31.4,30.07,0,22.95-17.13,29.85-31.86,31.32ZM383.38,32.42c-9.46,6.59-12.25,16.36-12.25,24.81,0,6.35,2.4,16.28,8.6,16.28,2.48,0,5.28-1.48,8.53-6.67,7.67-12.32,8.92-31.39,9.46-39.38A27.54,27.54,0,0,0,383.38,32.42Z"/><path class="cls-1" d="M480.73,13.5c1.77-4,3.44-9.24,3.84-10.52l5.31,1.28a76.53,76.53,0,0,1-4.13,9.24h39.54V91.7H451.12V13.5Zm38.95,4.92H456.53V37.5h63.15Zm0,23.71H456.53V61.4h63.15Zm0,23.9H456.53V86.88h63.15Z"/><path class="cls-1" d="M555.48,12.62V3.28h5.11v9.34h19.67v4.72H560.59v8.85H577.9V61.5H560.59v9h19.67v4.82H560.59v18.1h-5.11V75.37H535.71V70.55h19.77v-9H539V26.19h16.53V17.34H536.59V12.62Zm0,18.2H543.87V41.73h11.61Zm0,15.34H543.87V56.78h11.61Zm17.41-15.34h-12.3V41.73h12.3Zm0,15.34h-12.3V56.78h12.3Zm40.72,6.49A147.91,147.91,0,0,1,626,90.91l-5.9,1.48c-.39-2.56-.79-5-1.87-9.64-8.85,1.57-21.93,3.64-39.54,5.8l-.79-5.31c1.28-.2,5.32-.69,8-1a390.51,390.51,0,0,0,8.36-40.63h-13V36.82h44.46v4.81H599.54c-1.67,9.74-4.52,25.58-8.36,40C605.44,79.9,609,79.5,617.05,78a165,165,0,0,0-8.26-23.61Zm9.74-38.85H583.71V8.88h39.64Z"/><path class="cls-1" d="M716.09,18.32H675.87v9.35h34.42V62.78H675.87v9.35h42.39V77H675.87V93.47h-5.41V77h-42.4V72.13h42.4V62.78H635.64V27.67h34.82V18.32H630V13.5h40.43V3.18h5.41V13.5h40.22Zm-45.63,14H641.15V42.52h29.31Zm0,14.66H641.15V58.06h29.31Zm34.32-14.66H675.87V42.52h28.91Zm0,14.66H675.87V58.06h28.91Z"/><path class="cls-1" d="M802,8.49V91.7H729.07V8.49ZM734.68,46.85h61.57V13.6H734.68Zm0,5.11V86.78h61.57V52Z"/><path class="cls-1" d="M852.51,20.29V25H813V20.29ZM849,6.72v4.72H816.12V6.72Zm0,27.05v4.62H816.12V33.77Zm0,14.06v4.72H816.12V47.83Zm0,13.77V91.31H816.12V61.6Zm-5,4.33H821.23V86.78H844ZM898.64,43.7H864.31V83.24c0,2.46.69,3.15,4,3.15h22.23c2.75,0,3.93-.3,4.91-3,1.09-3,1.58-13.87,1.58-16.13l5.21,1c-.49,16.43-1.38,23.12-10.42,23.12h-24.2c-5.41,0-8.66-1.58-8.66-7.38V38.78h34.23V11.64H857.92V6.72h40.72Z"/><path class="cls-2" d="M54.36,89.93h-6.3V41A158.91,158.91,0,0,1,6.26,63.37l-2.75-5.8C15.31,54,48.65,40.16,74.13,6.62L80,10.16a173.82,173.82,0,0,1-25.67,26Z"/><path class="cls-2" d="M164.91,14.78v69h-71V14.78Zm-6,5.71h-59V78h59Z"/><path class="cls-2" d="M209.76,12.52C207.89,29,202.68,59,184.09,86l-5.61-3.24c14-20.46,21.15-40.72,24.89-71.21Zm45.54,71.8a209,209,0,0,0-24.2-70.23l5.51-2.85c8.16,14.66,20.16,39.44,25.28,71.61Z"/><path class="cls-2" d="M273.39,84.22c17-10.72,27.35-25.08,31-53.11h-28v-5.7h28.72c.69-9.25.69-13.18.69-18.79l6.4.2c-.4,9.14-.59,12.88-1.18,18.59h39V42.13c0,2.65,0,29.7-3.64,38.55-3.14,7.67-11.9,7.67-15.73,7.67a74.15,74.15,0,0,1-15.74-1.47v-6.1a88,88,0,0,0,16.43,1.77c7.67,0,9-3.64,9.83-6,2-6.19,2.66-26.55,2.66-34.52V31.11H310.38c-4.43,34-18.2,48.88-33.25,57.74Z"/><path class="cls-2" d="M400.2,79.86c8.83-1.08,28.52-3.49,28.52-26.58,0-5.28-1.31-25.82-26.2-26-1.24,13.57-2.71,29.84-10.46,42.17-4.26,6.74-8.61,9-12.17,9-7.52,0-13.26-9.22-13.26-21.16,0-19.85,13.88-34.26,35.58-34.26,26.05,0,31.4,18.83,31.4,30.07,0,22.95-17.13,29.85-31.86,31.32ZM383.38,32.42c-9.46,6.59-12.25,16.36-12.25,24.81,0,6.35,2.4,16.28,8.6,16.28,2.48,0,5.28-1.48,8.53-6.67,7.67-12.32,8.92-31.39,9.46-39.38A27.54,27.54,0,0,0,383.38,32.42Z"/><path class="cls-2" d="M480.73,13.5c1.77-4,3.44-9.24,3.84-10.52l5.31,1.28a76.53,76.53,0,0,1-4.13,9.24h39.54V91.7H451.12V13.5Zm38.95,4.92H456.53V37.5h63.15Zm0,23.71H456.53V61.4h63.15Zm0,23.9H456.53V86.88h63.15Z"/><path class="cls-2" d="M555.48,12.62V3.28h5.11v9.34h19.67v4.72H560.59v8.85H577.9V61.5H560.59v9h19.67v4.82H560.59v18.1h-5.11V75.37H535.71V70.55h19.77v-9H539V26.19h16.53V17.34H536.59V12.62Zm0,18.2H543.87V41.73h11.61Zm0,15.34H543.87V56.78h11.61Zm17.41-15.34h-12.3V41.73h12.3Zm0,15.34h-12.3V56.78h12.3Zm40.72,6.49A147.91,147.91,0,0,1,626,90.91l-5.9,1.48c-.39-2.56-.79-5-1.87-9.64-8.85,1.57-21.93,3.64-39.54,5.8l-.79-5.31c1.28-.2,5.32-.69,8-1a390.51,390.51,0,0,0,8.36-40.63h-13V36.82h44.46v4.81H599.54c-1.67,9.74-4.52,25.58-8.36,40C605.44,79.9,609,79.5,617.05,78a165,165,0,0,0-8.26-23.61Zm9.74-38.85H583.71V8.88h39.64Z"/><path class="cls-2" d="M716.09,18.32H675.87v9.35h34.42V62.78H675.87v9.35h42.39V77H675.87V93.47h-5.41V77h-42.4V72.13h42.4V62.78H635.64V27.67h34.82V18.32H630V13.5h40.43V3.18h5.41V13.5h40.22Zm-45.63,14H641.15V42.52h29.31Zm0,14.66H641.15V58.06h29.31Zm34.32-14.66H675.87V42.52h28.91Zm0,14.66H675.87V58.06h28.91Z"/><path class="cls-2" d="M802,8.49V91.7H729.07V8.49ZM734.68,46.85h61.57V13.6H734.68Zm0,5.11V86.78h61.57V52Z"/><path class="cls-2" d="M852.51,20.29V25H813V20.29ZM849,6.72v4.72H816.12V6.72Zm0,27.05v4.62H816.12V33.77Zm0,14.06v4.72H816.12V47.83Zm0,13.77V91.31H816.12V61.6Zm-5,4.33H821.23V86.78H844ZM898.64,43.7H864.31V83.24c0,2.46.69,3.15,4,3.15h22.23c2.75,0,3.93-.3,4.91-3,1.09-3,1.58-13.87,1.58-16.13l5.21,1c-.49,16.43-1.38,23.12-10.42,23.12h-24.2c-5.41,0-8.66-1.58-8.66-7.38V38.78h34.23V11.64H857.92V6.72h40.72Z"/></g></g></svg>