<svg xmlns="http://www.w3.org/2000/svg" viewBox="0 0 527 102.99"><defs><style>.cls-1{fill:#ccc;}.cls-2{fill:none;stroke:#ccc;stroke-miterlimit:10;stroke-width:0.5px;}</style></defs><title>アセット 8</title><g id="レイヤー_2" data-name="レイヤー 2"><g id="レイヤー_2-2" data-name="レイヤー 2"><path class="cls-1" d="M89.32,91.79h1.79v11H89.32Z"/><path class="cls-1" d="M101.2,91.79h6.5A3.08,3.08,0,0,1,110.88,95a3.13,3.13,0,0,1-2,3l2,4.91H109l-2-4.73H103v4.73H101.2Zm6.31,4.73a1.58,1.58,0,1,0,0-3.15H103v3.15Z"/><path class="cls-1" d="M120.34,97.31a5.74,5.74,0,0,1,5.73-5.67,5.43,5.43,0,0,1,5.71,5.67,5.75,5.75,0,0,1-5.71,5.68A5.45,5.45,0,0,1,120.34,97.31Zm9.62,0a3.9,3.9,0,1,0-3.89,4.07A3.91,3.91,0,0,0,130,97.31Z"/><path class="cls-1" d="M141.63,91.79h1.79v4.73h6.1V91.79h1.79v11h-1.79V98.1h-6.1v4.73h-1.79Z"/><path class="cls-1" d="M165.29,91.79h1.57l4.73,11h-1.75l-.67-1.57H163l-.64,1.57h-1.79Zm3.21,7.89-2.43-5.83-2.42,5.83Z"/><path class="cls-1" d="M180.84,91.79h1.79v7.34l7.19-7.34H192l-3.28,3.37,3.34,7.67h-2l-2.73-6.31-4.76,4.92v1.39h-1.79Z"/><path class="cls-1" d="M205.23,91.79h1.57l4.74,11h-1.76l-.67-1.57h-6.19l-.64,1.57h-1.79Zm3.21,7.89L206,93.85l-2.42,5.83Z"/><path class="cls-1" d="M215.07,90.21h1.73l-1.14,3.16H213.9Z"/><path class="cls-1" d="M222.81,101.26h6.31a1.58,1.58,0,0,0,0-3.16h-3.33A3,3,0,0,1,222.63,95a3.12,3.12,0,0,1,3.16-3.16h5.73v1.58H226a1.58,1.58,0,1,0,0,3.15h3.34a3,3,0,0,1,3.15,3.16,3.12,3.12,0,0,1-3.15,3.15h-6.5Z"/><path class="cls-1" d="M251,91.79h6.52A3.09,3.09,0,0,1,260.67,95a3.16,3.16,0,0,1-1.07,2.33,3.18,3.18,0,0,1,1.13,2.4,3.06,3.06,0,0,1-3.16,3.15H251Zm6.34,4.73a1.58,1.58,0,1,0,0-3.15h-4.55v3.15Zm.09,4.74a1.58,1.58,0,0,0,0-3.16h-4.64v3.16Z"/><path class="cls-1" d="M270.49,91.79h1.79v11h-1.79Z"/><path class="cls-1" d="M282.38,91.79h1.79v7.34l7.19-7.34h2.21l-3.28,3.37,3.34,7.67h-2l-2.73-6.31-4.76,4.92v1.39h-1.79Z"/><path class="cls-1" d="M302.88,91.79h9.7v1.58h-7.91v3.15h7.79V98.1h-7.79v3.16h7.91v1.57h-9.7Z"/><path class="cls-1" d="M325.59,91.79h1.91l3.64,8.89,1.46-3.76-2.12-5.13h1.91l3.49,8.89,3.61-8.89h1.88l-4.74,11h-1.57l-1.55-3.76-1.61,3.76h-1.58Z"/><path class="cls-1" d="M350.55,91.79h9.71v1.58h-7.92v3.15h7.8V98.1h-7.8v3.16h7.92v1.57h-9.71Z"/><path class="cls-1" d="M370.17,91.79h6.53A3.08,3.08,0,0,1,379.85,95a3.15,3.15,0,0,1-1.06,2.33,3.17,3.17,0,0,1,1.12,2.4,3.05,3.05,0,0,1-3.15,3.15h-6.59Zm6.34,4.73a1.58,1.58,0,1,0,0-3.15H372v3.15Zm.09,4.74a1.58,1.58,0,0,0,0-3.16H372v3.16Z"/><path class="cls-1" d="M389.67,91.79h1.79v9.47h4.74v1.57h-6.53Z"/><path class="cls-1" d="M405.2,97.31a5.74,5.74,0,0,1,5.73-5.67,5.43,5.43,0,0,1,5.71,5.67,5.75,5.75,0,0,1-5.71,5.68A5.45,5.45,0,0,1,405.2,97.31Zm9.62,0a3.9,3.9,0,1,0-3.89,4.07A3.91,3.91,0,0,0,414.82,97.31Z"/><path class="cls-1" d="M426.25,97.31A5.77,5.77,0,0,1,436,93.25l-1.22,1.21A3.71,3.71,0,0,0,432,93.25a4.07,4.07,0,0,0,0,8.13,3.86,3.86,0,0,0,3.61-2.49H432V97.31h5.7A5.75,5.75,0,0,1,432,103,5.45,5.45,0,0,1,426.25,97.31Z"/><line class="cls-2" y1="79.15" x2="527" y2="79.15"/><polygon class="cls-1" points="77.75 60.65 52.25 60.65 52.25 26.65 57.25 26.65 57.25 55.65 77.75 55.65 77.75 60.65"/><polygon class="cls-1" points="86.25 60.65 81.25 60.65 81.25 31.65 60.75 31.65 60.75 26.65 86.25 26.65 86.25 60.65"/><polygon class="cls-1" points="169.75 59.69 157.71 59.69 157.71 54.69 164.75 54.69 164.75 34.15 135.75 34.15 135.75 29.15 169.75 29.15 169.75 59.69"/><polygon class="cls-1" points="199.25 62.65 181.25 62.65 181.25 32.65 212.25 32.65 212.25 60.15 207.25 60.15 207.25 37.65 186.25 37.65 186.25 57.65 194.25 57.65 194.25 44.15 199.25 44.15 199.25 62.65"/><polygon class="cls-1" points="272.25 64.65 267.25 64.65 267.25 17.65 232.75 17.65 232.75 12.65 272.25 12.65 272.25 64.65"/><rect class="cls-1" x="235.5" y="26.65" width="34.25" height="5"/><rect class="cls-1" x="223.75" y="46.15" width="34.75" height="5"/><rect class="cls-1" x="280.25" y="11.15" width="34" height="5"/><rect class="cls-1" x="294.75" y="3.65" width="5" height="17"/><rect class="cls-1" x="280.25" y="52.15" width="34" height="5"/><rect class="cls-1" x="294.75" y="47.65" width="5" height="17"/><path class="cls-1" d="M314.25,49.65h-34v-31h34Zm-29-5h24v-21h-24Z"/><rect class="cls-1" x="320.25" y="17.65" width="23" height="5"/><rect class="cls-1" x="317.75" y="30.65" width="28" height="5"/><polygon class="cls-1" points="345.25 63.15 316.58 63.15 323.89 32.57 328.75 33.73 322.92 58.15 340.25 58.15 340.25 42.02 345.25 42.02 345.25 63.15"/><rect class="cls-1" x="351.75" y="10.65" width="46" height="5"/><rect class="cls-1" x="352.25" y="52.65" width="46" height="5"/><rect class="cls-1" x="372.25" y="1.15" width="5" height="19"/><rect class="cls-1" x="372.12" y="45.4" width="5" height="20.75" transform="translate(-0.64 4.52) rotate(-0.69)"/><polygon class="cls-1" points="439.75 62.15 405.25 62.15 405.25 9.65 410.25 9.65 410.25 57.15 439.75 57.15 439.75 62.15"/><polygon class="cls-1" points="450.25 62.15 445.25 62.15 445.25 14.65 414.75 14.65 414.75 9.65 450.25 9.65 450.25 62.15"/><rect class="cls-1" x="407.63" y="34.14" width="32.12" height="5"/><rect class="cls-1" x="458.25" y="12.42" width="23.15" height="5"/><rect class="cls-1" x="458.25" y="22.57" width="23.15" height="5"/><rect class="cls-1" x="458.25" y="32.73" width="23.15" height="5"/><polygon class="cls-1" points="515.75 62.65 485.83 62.65 485.83 27.19 510.75 27.19 510.75 11.88 488.33 11.88 488.33 6.88 515.75 6.88 515.75 32.19 490.83 32.19 490.83 57.65 510.75 57.65 510.75 44.46 515.75 44.46 515.75 62.65"/><path class="cls-1" d="M397.25,48.65h-45v-29h45Zm-40-5h35v-19h-35Z"/><polygon class="cls-1" points="43.25 19.1 11.25 38.41 11.25 44.15 26.96 34.87 27.25 60.15 32.25 60.09 31.93 32.07 43.25 24.83 43.25 19.1"/><polygon class="cls-1" points="103.17 27.65 92.91 59.65 98.07 59.65 108.33 27.65 103.17 27.65"/><polygon class="cls-1" points="122.79 27.65 117.58 27.65 127.71 59.65 132.92 59.65 122.79 27.65"/><polygon class="cls-1" points="149.1 21.65 138.53 59.65 143.72 59.65 154.29 21.65 149.1 21.65"/><polygon class="cls-1" points="226.25 59.65 226.25 14.3 235.25 6.58 235.25 0 221.25 12 221.25 64.65 263.75 64.65 263.75 59.65 226.25 59.65"/><path class="cls-1" d="M481.25,62.65h-23v-20h23Zm-18-5h13v-10h-13Z"/><polygon class="cls-1" points="464 6.65 468.07 16.63 473.46 14.62 470.08 6.65 464 6.65"/></g></g></svg>