<svg xmlns="http://www.w3.org/2000/svg" viewBox="0 0 494.84 97.48"><defs><style>.cls-1{font-size:15.16px;font-family:Helvetica;letter-spacing:0.53em;}.cls-1,.cls-6{fill:#e6e6e6;}.cls-2{letter-spacing:0.08em;}.cls-3{letter-spacing:0.28em;}.cls-4{letter-spacing:1.12em;}.cls-5{letter-spacing:0.79em;}</style></defs><title>blogtitle</title><g id="レイヤー_2" data-name="レイヤー 2"><g id="レイヤー_1-2" data-name="レイヤー 1"><text class="cls-1" transform="translate(71.09 90.18)">IROHAK<tspan class="cls-2" x="106.36" y="0">A</tspan><tspan class="cls-3" x="117.68" y="0">’</tspan><tspan class="cls-4" x="125.3" y="0">S</tspan><tspan x="152.4" y="0">BIK</tspan><tspan class="cls-5" x="200.95" y="0">E</tspan><tspan x="223.04" y="0">WEBLOG</tspan></text><polygon class="cls-6" points="227.84 67 193.84 67 193.84 13.88 207.88 1.08 207.87 6.53 197.84 15.65 197.84 63 227.84 63 227.84 67"/><polygon class="cls-6" points="242.84 64 238.84 64 238.84 19 202.84 19 202.84 15 242.84 15 242.84 64"/><polygon class="cls-6" points="409.84 67 375.84 67 375.84 7 379.84 7 379.84 63 409.84 63 409.84 67"/><polygon class="cls-6" points="424.84 66 420.84 66 420.84 11 384.84 11 384.84 7 424.84 7 424.84 66"/><path class="cls-6" d="M460.84,64h-22V42h22Zm-18-4h14V46h-14Z"/><rect class="cls-6" x="436.84" y="20" width="25" height="4"/><rect class="cls-6" x="436.84" y="31" width="25" height="4"/><path class="cls-6" d="M283.84,48V19h-15V14h13V10h-13V0h-4V10h-12v4h12v5h-14V48h14v6h-12v4h12v9h4V58h13V54h-13V48Zm-29-25h25V44h-25Z"/><path class="cls-6" d="M368.84,48V19h-22V14h18V10h-18V0h-4V10h-17v4h17v5h-21V48h21v7h-17v4h17v9h4V59h18V55h-18V48Zm-43-25h39V44h-39Z"/><rect class="cls-6" x="288.84" y="15" width="23" height="4"/><polygon class="cls-6" points="314.84 36 314.84 32 286.84 32 286.84 36 292.67 36 288.52 64 312.84 64 312.84 46 308.84 46 308.84 60 293.16 60 296.72 36 314.84 36"/><polygon class="cls-6" points="451.29 10 448.12 4 443.84 4 446.87 10 436.84 10 436.84 14 461.84 14 461.84 10 451.29 10"/><polygon class="cls-6" points="494.84 64 467.84 64 467.84 31 490.84 31 490.84 13 469.84 13 469.84 9 494.84 9 494.84 35 471.84 35 471.84 60 490.84 60 490.84 41 494.84 41 494.84 64"/><polygon class="cls-6" points="175.84 63 170.84 63 170.84 60 172.84 60 172.84 41 152.84 41 152.84 60 160.84 60 160.84 47 163.84 47 163.84 63 149.84 63 149.84 38 175.84 38 175.84 63"/><rect class="cls-6" x="-1.98" y="36.75" width="33.14" height="3" transform="translate(-18.87 14.66) rotate(-33.93)"/><rect class="cls-6" x="14.84" y="38" width="3" height="23"/><path class="cls-6" d="M58.84,60h-25V36h25Zm-22-3h19V39h-19Z"/><rect class="cls-6" x="59.12" y="45.25" width="23.93" height="3" transform="translate(-2.12 90.11) rotate(-63.97)"/><rect class="cls-6" x="89.59" y="37.38" width="3" height="21.24" transform="translate(-11.85 45.8) rotate(-26.57)"/><polygon class="cls-6" points="127.84 61 118.84 61 118.84 58 124.84 58 124.84 36 100.84 36 100.84 33 127.84 33 127.84 61"/><rect class="cls-6" x="92.74" y="42.25" width="33.45" height="3" transform="translate(31.45 132.13) rotate(-70.35)"/></g></g></svg>