<svg xmlns="http://www.w3.org/2000/svg" viewBox="0 0 527 103.34"><defs><style>.cls-1{fill:#e6e6e6;}.cls-2{fill:none;stroke:#f2f2f2;stroke-miterlimit:10;stroke-width:0.5px;}</style></defs><title>blogtitle</title><g id="レイヤー_2" data-name="レイヤー 2"><g id="レイヤー_1-2" data-name="レイヤー 1"><path class="cls-1" d="M85.5,92.14h1.79v11H85.5Z"/><path class="cls-1" d="M97.38,92.14h6.5a3.08,3.08,0,0,1,3.18,3.16,3.13,3.13,0,0,1-2,3l2,4.91h-1.85l-2-4.73H99.17v4.73H97.38Zm6.31,4.73a1.58,1.58,0,1,0,0-3.15H99.17v3.15Z"/><path class="cls-1" d="M116.52,97.66A5.74,5.74,0,0,1,122.25,92,5.43,5.43,0,0,1,128,97.66a5.75,5.75,0,0,1-5.71,5.68A5.45,5.45,0,0,1,116.52,97.66Zm9.62,0a3.9,3.9,0,1,0-3.89,4.07A3.91,3.91,0,0,0,126.14,97.66Z"/><path class="cls-1" d="M137.81,92.14h1.79v4.73h6.1V92.14h1.79v11H145.7V98.45h-6.1v4.73h-1.79Z"/><path class="cls-1" d="M161.47,92.14H163l4.74,11H166l-.67-1.57h-6.19l-.64,1.57h-1.79Zm3.21,7.89-2.43-5.83L159.83,100Z"/><path class="cls-1" d="M177,92.14h1.79v7.34L186,92.14h2.22l-3.28,3.37,3.34,7.67h-2l-2.73-6.31-4.76,4.92v1.39H177Z"/><path class="cls-1" d="M201.41,92.14H203l4.74,11H206l-.67-1.57H199.1l-.64,1.57h-1.79Zm3.21,7.89L202.2,94.2,199.77,100Z"/><path class="cls-1" d="M211.25,90.56H213l-1.14,3.16h-1.76Z"/><path class="cls-1" d="M219,101.61h6.31a1.58,1.58,0,0,0,0-3.16H222a3,3,0,0,1-3.16-3.15A3.12,3.12,0,0,1,222,92.14h5.73v1.58h-5.55a1.58,1.58,0,1,0,0,3.15h3.34a3,3,0,0,1,3.15,3.16,3.12,3.12,0,0,1-3.15,3.15H219Z"/><path class="cls-1" d="M247.17,92.14h6.52a3.09,3.09,0,0,1,3.16,3.16,3.16,3.16,0,0,1-1.07,2.33,3.18,3.18,0,0,1,1.13,2.4,3.06,3.06,0,0,1-3.16,3.15h-6.58Zm6.34,4.73a1.58,1.58,0,1,0,0-3.15H249v3.15Zm.09,4.74a1.58,1.58,0,1,0,0-3.16H249v3.16Z"/><path class="cls-1" d="M266.67,92.14h1.79v11h-1.79Z"/><path class="cls-1" d="M278.56,92.14h1.79v7.34l7.19-7.34h2.21l-3.28,3.37,3.34,7.67h-2l-2.73-6.31-4.76,4.92v1.39h-1.79Z"/><path class="cls-1" d="M299.06,92.14h9.71v1.58h-7.92v3.15h7.79v1.58h-7.79v3.16h7.92v1.57h-9.71Z"/><path class="cls-1" d="M321.77,92.14h1.91l3.64,8.89,1.46-3.76-2.12-5.13h1.91l3.49,8.89,3.61-8.89h1.88l-4.74,11h-1.57l-1.55-3.76-1.61,3.76h-1.57Z"/><path class="cls-1" d="M346.73,92.14h9.71v1.58h-7.92v3.15h7.8v1.58h-7.8v3.16h7.92v1.57h-9.71Z"/><path class="cls-1" d="M366.35,92.14h6.53A3.08,3.08,0,0,1,376,95.3,3.15,3.15,0,0,1,375,97.63a3.17,3.17,0,0,1,1.12,2.4,3.05,3.05,0,0,1-3.15,3.15h-6.59Zm6.34,4.73a1.58,1.58,0,1,0,0-3.15h-4.55v3.15Zm.1,4.74a1.58,1.58,0,0,0,0-3.16h-4.65v3.16Z"/><path class="cls-1" d="M385.85,92.14h1.79v9.47h4.74v1.57h-6.53Z"/><path class="cls-1" d="M401.38,97.66A5.74,5.74,0,0,1,407.11,92a5.43,5.43,0,0,1,5.71,5.67,5.75,5.75,0,0,1-5.71,5.68A5.45,5.45,0,0,1,401.38,97.66Zm9.62,0a3.9,3.9,0,1,0-3.89,4.07A3.91,3.91,0,0,0,411,97.66Z"/><path class="cls-1" d="M422.43,97.66a5.77,5.77,0,0,1,9.77-4.06L431,94.81a3.71,3.71,0,0,0-2.82-1.21,4.07,4.07,0,0,0,0,8.13,3.85,3.85,0,0,0,3.61-2.49h-3.61V97.66h5.71a5.75,5.75,0,0,1-5.71,5.68A5.45,5.45,0,0,1,422.43,97.66Z"/><polygon class="cls-1" points="257 67 217 67 217 13.88 231.04 1.08 231.03 6.53 221 15.65 221 63 257 63 257 67"/><polygon class="cls-1" points="266 64 262 64 262 19 226 19 226 15 266 15 266 64"/><polygon class="cls-1" points="439 67 399 67 399 7 403 7 403 63 439 63 439 67"/><polygon class="cls-1" points="448 66 444 66 444 11 408 11 408 7 448 7 448 66"/><path class="cls-1" d="M484,64H462V42h22Zm-18-4h14V46H466Z"/><rect class="cls-1" x="460" y="20" width="25" height="4"/><rect class="cls-1" x="460" y="31" width="25" height="4"/><path class="cls-1" d="M307,48V19H292V14h13V10H292V0h-4V10H276v4h12v5H274V48h14v6H276v4h12v9h4V58h13V54H292V48ZM278,23h25V44H278Z"/><path class="cls-1" d="M392,48V19H370V14h18V10H370V0h-4V10H349v4h17v5H345V48h21v7H349v4h17v9h4V59h18V55H370V48ZM349,23h39V44H349Z"/><rect class="cls-1" x="312" y="15" width="23" height="4"/><polygon class="cls-1" points="338 36 338 32 310 32 310 36 315.84 36 311.68 64 336 64 336 46 332 46 332 60 316.32 60 319.88 36 338 36"/><polygon class="cls-1" points="474.45 10 472.28 5 468 5 470.03 10 460 10 460 14 485 14 485 10 474.45 10"/><polygon class="cls-1" points="518 64 491 64 491 31 514 31 514 13 493 13 493 9 518 9 518 35 495 35 495 60 514 60 514 41 518 41 518 64"/><polygon class="cls-1" points="204 63 199 63 199 60 201 60 201 41 181 41 181 60 189 60 189 47 192 47 192 63 178 63 178 38 204 38 204 63"/><path class="cls-1" d="M77.29,63H47V33.86H77.29ZM50.6,59.33H73.65V37.49H50.6Z"/><polygon class="cls-1" points="41.53 27.71 41.53 23.32 9 45.92 9 50.31 25.91 38.57 25.91 64.18 29.55 64.18 29.55 36.28 29.32 36.28 41.53 27.71"/><polygon class="cls-1" points="89.25 60.93 89.25 61.03 102.04 34.9 97.99 34.9 85.25 60.93 89.25 60.93"/><polygon class="cls-1" points="126.71 60.93 114.24 35.99 110.17 35.99 122.64 60.93 126.71 60.93"/><polygon class="cls-1" points="147.3 30.22 149.11 25.14 145.25 25.14 143.43 30.22 130.25 30.22 130.25 33.85 142.13 33.85 131.38 64.18 135.24 64.18 146 33.85 159.36 33.85 159.36 60.54 152.08 60.54 152.08 64.18 163 64.18 163 30.22 147.3 30.22"/><line class="cls-2" y1="79.5" x2="527" y2="79.5"/></g></g></svg>