<svg xmlns="http://www.w3.org/2000/svg" viewBox="0 0 537 78"><defs><style>.cls-1{fill:#e1f3c4;}.cls-2{fill:none;}</style></defs><title>イロハカの自転車日記</title><g id="レイヤー_2" data-name="レイヤー 2"><g id="レイヤー_1-2" data-name="レイヤー 1"><path class="cls-1" d="M34.51,38.47l-2.1-7A50.87,50.87,0,0,0,58.08,13.15L64,17.41a83.85,83.85,0,0,1-9.55,10.3v36H47.11V33.12A51.37,51.37,0,0,1,34.51,38.47Z"/><path class="cls-1" d="M108.33,63.67H78.67V16.8h29.66ZM101,24.12H86V56.35h15Z"/><path class="cls-1" d="M129.15,64,123,60C132,49,132,42.38,131.88,28.43L131.82,17l7.32,0,.05,11.45C139.28,45.46,137.89,52.85,129.15,64Zm25.42-34.66c.08,15.3,1.05,19.29,6.9,25.9l-5.19,5.17c-6-6.4-8.93-12.48-9-31l0-6.7,7.32,0Z"/><path class="cls-1" d="M178.29,32.54l0-8.53-7,0,0-7.31,7,0V13l7.31,0,0,3.66,16.93-.09.15,30.27c.06,12.67-3.58,16.61-15,16.67l0-7.31c6.57,0,7.71-2.21,7.68-7.83l-.12-24.45-9.62,0,.05,8.53c.07,14.43-2.8,23.11-8.79,31.06l-6-4.23C176,51.79,178.36,45.34,178.29,32.54Z"/><path class="cls-1" d="M248.41,44.52C248.41,58.72,239,65,231.08,65V58.72c5.29,0,10.82-4.66,10.82-14.14,0-3.55-1.57-8.26-6.05-9.66-1.17,12.74-7,17.1-11.93,17.1-4.54,0-8.73-1.51-9.83-6.63-2-9.48,6.86-17.22,18.85-17.22C244.17,28.17,248.41,38.12,248.41,44.52Zm-18.85-9.83c-11.05,1.68-11.87,11.46-6.69,11.46C225.43,46.15,228.69,43.3,229.56,34.69Z"/><path class="cls-1" d="M278.8,16.44h21.8V64H257.89V16.44h13.9l.7-3.44h7Zm-14,7V30h29V23.39Zm29,13.52h-29V43.6h29Zm0,13.58h-29v6.63h29Z"/><path class="cls-1" d="M314.49,60.56h-5.61V53.67h5.61V51.25h-5.61V25.75h5.61V23.33h-5.61V16.44h5.61V13h6.89v3.44h5.67v6.89h-5.67v2.42h5.67v25.5h-5.67v2.42h5.67v6.89h-5.67V64h-6.89Zm-1.27-23.91h3.31v-4h-3.31Zm3.31,7.72v-4h-3.31v4Zm2.87-7.72h3.32v-4H319.4Zm0,7.72h3.32v-4H319.4ZM329,13H351.6v6.89H329Zm0,18.62H351.6V38.5H339.87L336,57.12h8.54l-2.74-13.2,6.76-1.4,3.06,14.6V64H329V57.12l3.88-18.62H329Z"/><path class="cls-1" d="M384.68,16.44h17.91v6.89H384.68v2.42h16v25.5h-16v2.42h17.91v6.89H384.68V64h-6.89V60.56H359.88V53.67h17.91V51.25h-16V25.75h16V23.33H359.88V16.44h17.91V13h6.89Zm-6.89,16.2h-9.11v4h9.11Zm0,7.71h-9.11v4h9.11Zm6.89-7.71v4h9.12v-4Zm9.12,7.71h-9.12v4h9.12Z"/><path class="cls-1" d="M410.88,13h42.71V64H410.88Zm6.88,22.06h28.95V19.89H417.76Zm0,22.06h28.95V41.94H417.76Z"/><path class="cls-1" d="M481.32,23.33H461.87V16.44h6.25V13H475v3.44h6.31Zm0,40.67H461.87V45.32h19.45ZM479.4,33H463.79V26.07H479.4ZM463.79,35.7H479.4v6.88H463.79Zm10.64,16.51h-5.67v4.91h5.67ZM483.23,13h21.36V38.5H490.05V52.84c0,3.32,1.21,4.28,3.57,4.28h11V64h-11c-7,0-10.45-3.19-10.45-11.16V38.5h.06V31.62H497.7V19.89H483.23Z"/><rect class="cls-2" width="537" height="78"/></g></g></svg>