<svg xmlns="http://www.w3.org/2000/svg" viewBox="0 0 527 101.67"><defs><style>.cls-1{font-size:15.16px;font-family:Reross-Quadratic, Reross;letter-spacing:0.53em;}.cls-1,.cls-6{fill:#e6e6e6;}.cls-2{letter-spacing:0.08em;}.cls-3{letter-spacing:0.28em;}.cls-4{letter-spacing:1.12em;}.cls-5{letter-spacing:0.79em;}.cls-7{fill:none;stroke:#f2f2f2;stroke-miterlimit:10;stroke-width:0.5px;}</style></defs><title>アセット 2</title><g id="レイヤー_2" data-name="レイヤー 2"><g id="レイヤー_1-2" data-name="レイヤー 1"><text class="cls-1" transform="translate(84.46 97.18)">IROHAK<tspan class="cls-2" x="112.03" y="0">A</tspan><tspan class="cls-3" x="124.64" y="0">’</tspan><tspan class="cls-4" x="133.71" y="0">S</tspan><tspan x="161.67" y="0">BIK</tspan><tspan class="cls-5" x="213.56" y="0">E</tspan><tspan x="237.13" y="0">WEBLOG</tspan></text><polygon class="cls-6" points="257 67 217 67 217 13.88 231.04 1.08 231.03 6.53 221 15.65 221 63 257 63 257 67"/><polygon class="cls-6" points="266 64 262 64 262 19 226 19 226 15 266 15 266 64"/><polygon class="cls-6" points="439 67 399 67 399 7 403 7 403 63 439 63 439 67"/><polygon class="cls-6" points="448 66 444 66 444 11 408 11 408 7 448 7 448 66"/><path class="cls-6" d="M484,64H462V42h22Zm-18-4h14V46H466Z"/><rect class="cls-6" x="460" y="20" width="25" height="4"/><rect class="cls-6" x="460" y="31" width="25" height="4"/><path class="cls-6" d="M307,48V19H292V14h13V10H292V0h-4V10H276v4h12v5H274V48h14v6H276v4h12v9h4V58h13V54H292V48ZM278,23h25V44H278Z"/><path class="cls-6" d="M392,48V19H370V14h18V10H370V0h-4V10H349v4h17v5H345V48h21v7H349v4h17v9h4V59h18V55H370V48ZM349,23h39V44H349Z"/><rect class="cls-6" x="312" y="15" width="23" height="4"/><polygon class="cls-6" points="338 36 338 32 310 32 310 36 315.84 36 311.68 64 336 64 336 46 332 46 332 60 316.32 60 319.88 36 338 36"/><polygon class="cls-6" points="474.45 10 472.28 5 468 5 470.03 10 460 10 460 14 485 14 485 10 474.45 10"/><polygon class="cls-6" points="518 64 491 64 491 31 514 31 514 13 493 13 493 9 518 9 518 35 495 35 495 60 514 60 514 41 518 41 518 64"/><polygon class="cls-6" points="204 63 199 63 199 60 201 60 201 41 181 41 181 60 189 60 189 47 192 47 192 63 178 63 178 38 204 38 204 63"/><path class="cls-6" d="M77.29,63H47V33.86H77.29ZM50.6,59.33H73.65V37.49H50.6Z"/><polygon class="cls-6" points="41.53 27.71 41.53 23.32 9 45.92 9 50.31 25.91 38.57 25.91 64.18 29.55 64.18 29.55 36.28 29.32 36.28 41.53 27.71"/><polygon class="cls-6" points="89.25 60.93 89.25 61.03 102.04 34.9 97.99 34.9 85.25 60.93 89.25 60.93"/><polygon class="cls-6" points="126.71 60.93 114.24 35.99 110.17 35.99 122.64 60.93 126.71 60.93"/><polygon class="cls-6" points="147.3 30.22 149.11 25.14 145.25 25.14 143.43 30.22 130.25 30.22 130.25 33.85 142.13 33.85 131.38 64.18 135.24 64.18 146 33.85 159.36 33.85 159.36 60.54 152.08 60.54 152.08 64.18 163 64.18 163 30.22 147.3 30.22"/><line class="cls-7" y1="75.5" x2="527" y2="75.5"/></g></g></svg>