<svg xmlns="http://www.w3.org/2000/svg" viewBox="0 0 527 102.99"><defs><style>.cls-1{fill:#ccc;}.cls-2{fill:none;stroke:#ccc;stroke-miterlimit:10;stroke-width:0.5px;}</style></defs><title>blog</title><g id="レイヤー_2" data-name="レイヤー 2"><g id="レイヤー_2-2" data-name="レイヤー 2"><polygon class="cls-1" points="73.5 64.65 48 64.65 48 32.65 53 32.65 53 59.65 73.5 59.65 73.5 64.65"/><polygon class="cls-1" points="82 63.15 77 63.15 77 36.65 57.5 36.65 57.5 31.65 82 31.65 82 63.15"/><polygon class="cls-1" points="164.5 61.69 152.46 61.69 152.46 56.69 159.5 56.69 159.5 36.15 130.5 36.15 130.5 31.15 164.5 31.15 164.5 61.69"/><polygon class="cls-1" points="194 64.65 176 64.65 176 34.65 207 34.65 207 62.15 202 62.15 202 39.65 181 39.65 181 59.65 189 59.65 189 46.15 194 46.15 194 64.65"/><polygon class="cls-1" points="266 63.15 261 63.15 261 16.65 226.5 16.65 226.5 11.65 266 11.65 266 63.15"/><rect class="cls-1" x="226.5" y="24.65" width="37" height="5"/><rect class="cls-1" x="217.5" y="45.15" width="38" height="5"/><rect class="cls-1" x="274.5" y="10.65" width="29" height="5"/><rect class="cls-1" x="286" y="3.15" width="5" height="17"/><rect class="cls-1" x="274.5" y="52.65" width="29" height="5"/><rect class="cls-1" x="287" y="48.15" width="5" height="17"/><path class="cls-1" d="M306,49.65H272v-31h34Zm-29-5h24v-21H277Z"/><rect class="cls-1" x="313" y="15.65" width="23" height="5"/><rect class="cls-1" x="310.5" y="28.65" width="28" height="5"/><polygon class="cls-1" points="338 61.15 309.33 61.15 316.64 30.57 321.5 31.73 315.67 56.15 333 56.15 333 40.02 338 40.02 338 61.15"/><rect class="cls-1" x="346.5" y="10.65" width="46" height="5"/><rect class="cls-1" x="347" y="52.65" width="46" height="5"/><rect class="cls-1" x="367" y="1.15" width="5" height="19"/><rect class="cls-1" x="366.87" y="45.4" width="5" height="20.75" transform="translate(-0.65 4.45) rotate(-0.69)"/><polygon class="cls-1" points="437.5 62.65 403 62.65 403 11.15 408 11.15 408 57.65 437.5 57.65 437.5 62.65"/><polygon class="cls-1" points="448 60.15 443 60.15 443 13.65 412.5 13.65 412.5 8.65 448 8.65 448 60.15"/><rect class="cls-1" x="405.38" y="33.14" width="32.12" height="5"/><rect class="cls-1" x="459" y="15.42" width="23.15" height="5"/><rect class="cls-1" x="459" y="25.57" width="23.15" height="5"/><rect class="cls-1" x="459" y="35.73" width="23.15" height="5"/><polygon class="cls-1" points="516.5 65.65 486.58 65.65 486.58 30.19 511.5 30.19 511.5 14.88 489.08 14.88 489.08 9.88 516.5 9.88 516.5 35.19 491.58 35.19 491.58 60.65 511.5 60.65 511.5 47.46 516.5 47.46 516.5 65.65"/><path class="cls-1" d="M392,48.65H347v-29h45Zm-40-5h35v-19H352Z"/><path class="cls-1" d="M85.5,91.79h1.79v11H85.5Z"/><path class="cls-1" d="M97.38,91.79h6.5A3.08,3.08,0,0,1,107.06,95a3.13,3.13,0,0,1-2,3l2,4.91h-1.85l-2-4.73H99.17v4.73H97.38Zm6.31,4.73a1.58,1.58,0,1,0,0-3.15H99.17v3.15Z"/><path class="cls-1" d="M116.52,97.31a5.74,5.74,0,0,1,5.73-5.67A5.43,5.43,0,0,1,128,97.31a5.75,5.75,0,0,1-5.71,5.68A5.45,5.45,0,0,1,116.52,97.31Zm9.62,0a3.9,3.9,0,1,0-3.89,4.07A3.91,3.91,0,0,0,126.14,97.31Z"/><path class="cls-1" d="M137.81,91.79h1.79v4.73h6.1V91.79h1.79v11H145.7V98.1h-6.1v4.73h-1.79Z"/><path class="cls-1" d="M161.47,91.79H163l4.74,11H166l-.67-1.57h-6.19l-.64,1.57h-1.79Zm3.21,7.89-2.43-5.83-2.42,5.83Z"/><path class="cls-1" d="M177,91.79h1.79v7.34L186,91.79h2.22l-3.28,3.37,3.34,7.67h-2l-2.73-6.31-4.76,4.92v1.39H177Z"/><path class="cls-1" d="M201.41,91.79H203l4.74,11H206l-.67-1.57H199.1l-.64,1.57h-1.79Zm3.21,7.89-2.42-5.83-2.43,5.83Z"/><path class="cls-1" d="M211.25,90.21H213l-1.14,3.16h-1.76Z"/><path class="cls-1" d="M219,101.26h6.31a1.58,1.58,0,0,0,0-3.16H222A3,3,0,0,1,218.81,95,3.12,3.12,0,0,1,222,91.79h5.73v1.58h-5.55a1.58,1.58,0,1,0,0,3.15h3.34a3,3,0,0,1,3.15,3.16,3.12,3.12,0,0,1-3.15,3.15H219Z"/><path class="cls-1" d="M247.17,91.79h6.52A3.09,3.09,0,0,1,256.85,95a3.16,3.16,0,0,1-1.07,2.33,3.18,3.18,0,0,1,1.13,2.4,3.06,3.06,0,0,1-3.16,3.15h-6.58Zm6.34,4.73a1.58,1.58,0,1,0,0-3.15H249v3.15Zm.09,4.74a1.58,1.58,0,1,0,0-3.16H249v3.16Z"/><path class="cls-1" d="M266.67,91.79h1.79v11h-1.79Z"/><path class="cls-1" d="M278.56,91.79h1.79v7.34l7.19-7.34h2.21l-3.28,3.37,3.34,7.67h-2l-2.73-6.31-4.76,4.92v1.39h-1.79Z"/><path class="cls-1" d="M299.06,91.79h9.71v1.58h-7.92v3.15h7.79V98.1h-7.79v3.16h7.92v1.57h-9.71Z"/><path class="cls-1" d="M321.77,91.79h1.91l3.64,8.89,1.46-3.76-2.12-5.13h1.91l3.49,8.89,3.61-8.89h1.88l-4.74,11h-1.57l-1.55-3.76-1.61,3.76h-1.57Z"/><path class="cls-1" d="M346.73,91.79h9.71v1.58h-7.92v3.15h7.8V98.1h-7.8v3.16h7.92v1.57h-9.71Z"/><path class="cls-1" d="M366.35,91.79h6.53A3.08,3.08,0,0,1,376,95,3.15,3.15,0,0,1,375,97.28a3.17,3.17,0,0,1,1.12,2.4,3.05,3.05,0,0,1-3.15,3.15h-6.59Zm6.34,4.73a1.58,1.58,0,1,0,0-3.15h-4.55v3.15Zm.1,4.74a1.58,1.58,0,0,0,0-3.16h-4.65v3.16Z"/><path class="cls-1" d="M385.85,91.79h1.79v9.47h4.74v1.57h-6.53Z"/><path class="cls-1" d="M401.38,97.31a5.74,5.74,0,0,1,5.73-5.67,5.43,5.43,0,0,1,5.71,5.67,5.75,5.75,0,0,1-5.71,5.68A5.45,5.45,0,0,1,401.38,97.31Zm9.62,0a3.9,3.9,0,1,0-3.89,4.07A3.91,3.91,0,0,0,411,97.31Z"/><path class="cls-1" d="M422.43,97.31a5.77,5.77,0,0,1,9.77-4.06L431,94.46a3.71,3.71,0,0,0-2.82-1.21,4.07,4.07,0,0,0,0,8.13,3.85,3.85,0,0,0,3.61-2.49h-3.61V97.31h5.71a5.75,5.75,0,0,1-5.71,5.68A5.45,5.45,0,0,1,422.43,97.31Z"/><line class="cls-2" y1="79.15" x2="527" y2="79.15"/><polygon class="cls-1" points="44 23.13 12 42.44 12 48.17 27.71 38.9 28 64.18 33 64.12 32.68 36.1 44 28.86 44 23.13"/><polygon class="cls-1" points="97.92 32.65 87.66 63.65 92.82 63.65 103.08 32.65 97.92 32.65"/><polygon class="cls-1" points="114.54 33.65 109.33 33.65 119.46 63.65 124.67 63.65 114.54 33.65"/><polygon class="cls-1" points="143.85 23.65 133.28 61.65 138.47 61.65 149.04 23.65 143.85 23.65"/><polygon class="cls-1" points="220 59.65 220 14.3 229 6.58 229 0 215 12 215 64.65 257.5 64.65 257.5 59.65 220 59.65"/><polygon class="cls-1" points="469.1 8.65 461.91 8.65 470.4 19.3 475 15.85 469.1 8.65"/><path class="cls-1" d="M482,65.65H459v-20h23Zm-18-5h13v-10H464Z"/></g></g></svg>