<svg xmlns="http://www.w3.org/2000/svg" viewBox="0 0 357.13 37.25"><defs><style>.cls-1{fill:#4dc3e0}</style></defs><title>アセット 2</title><g id="レイヤー_2" data-name="レイヤー 2"><g id="レイヤー_1-2" data-name="レイヤー 1"><path d="M1.44,19.88,0,15.1A34.89,34.89,0,0,0,17.6,2.51l4,2.92a56.72,56.72,0,0,1-6.54,7.06V37.16h-5V16.21A35.49,35.49,0,0,1,1.44,19.88Z" class="cls-1"/><path d="M57.78,37.16H37.43V5H57.78ZM52.76,10H42.45V32.14H52.76Z" class="cls-1"/><path d="M74.82,37.25l-4.18-2.79c6.17-7.52,6.17-12,6.17-21.59V5h5v7.85C81.83,24.57,80.86,29.63,74.82,37.25ZM92.37,13.56c0,10.5.65,13.24,4.65,17.79l-3.58,3.53c-4.08-4.41-6.08-8.59-6.08-21.32V9h5Z" class="cls-1"/><path d="M114.34,15.89V10h-4.78V5h4.78V2.51h5V5H131V25.78c0,8.68-2.51,11.38-10.31,11.38v-5c4.5,0,5.29-1.48,5.29-5.34V10h-6.59v5.86c0,9.89-2,15.83-6.14,21.27l-4.08-2.93C112.71,29.08,114.34,24.66,114.34,15.89Z" class="cls-1"/><path d="M169.93,20.81c0,11.33-7.52,16.35-13.84,16.35v-5c4.23,0,8.64-3.71,8.64-11.29,0-2.83-1.25-6.59-4.83-7.7-.93,10.17-5.57,13.65-9.52,13.65-3.63,0-7-1.21-7.85-5.29C140.9,13.93,148,7.76,157.58,7.76,166.54,7.76,169.93,15.7,169.93,20.81ZM154.88,13c-8.82,1.35-9.47,9.15-5.34,9.15C151.58,22.11,154.19,19.83,154.88,13Z" class="cls-1"/><path d="M192.64,2.51h15.88V37.16H177.4V2.51h10.13L188,0h5.11ZM182.42,7.57V12.4h21.09V7.57Zm21.09,9.85H182.42v4.87h21.09Zm0,9.89H182.42v4.83h21.09Z" class="cls-1"/><path d="M218.64,34.65h-4.08v-5h4.08V27.87h-4.08V9.29h4.08V7.52h-4.08v-5h4.08V0h5V2.51h4.13v5h-4.13V9.29h4.13V27.87h-4.13v1.76h4.13v5h-4.13v2.51h-5Zm-.92-17.42h2.41V14.31h-2.41Zm2.41,5.62V19.93h-2.41v2.92Zm2.09-5.62h2.42V14.31h-2.42Zm0,5.62h2.42V19.93h-2.42Zm7-22.85h16.49V5H229.19Zm0,13.56h16.49v5h-8.55L234.3,32.14h6.22l-2-9.61,4.93-1,2.23,10.63v5H229.19v-5L232,18.58h-2.83Z" class="cls-1"/><path d="M269.78,2.51h13.05v5H269.78V9.29h11.66V27.87H269.78v1.76h13.05v5H269.78v2.51h-5V34.65h-13v-5h13V27.87H253.1V9.29h11.66V7.52h-13v-5h13V0h5Zm-5,11.8h-6.64v2.92h6.64Zm0,5.62h-6.64v2.92h6.64Zm5-5.62v2.92h6.64V14.31Zm6.64,5.62h-6.64v2.92h6.64Z" class="cls-1"/><path d="M288.86,0H320V37.16H288.86Zm5,16.07H315V5H293.88Zm0,16.07H315v-11H293.88Z" class="cls-1"/><path d="M340.18,7.52H326v-5h4.55V0h5V2.51h4.6Zm0,29.64H326V23.55h14.16Zm-1.39-22.62H327.41v-5h11.38Zm-11.38,2h11.38v5H327.41Zm7.75,12H331v3.57h4.13ZM341.57,0h15.56V18.58H346.54V29c0,2.42.89,3.11,2.61,3.11h8v5h-8c-5.11,0-7.62-2.32-7.62-8.13V18.58h0v-5h10.55V5H341.57Z" class="cls-1"/></g></g></svg>